<svg width="24" height="24" viewBox="0 0 24 24" fill="none" xmlns="http://www.w3.org/2000/svg">
<path d="M5 22H19C19.5304 22 20.0391 21.7893 20.4142 21.4142C20.7893 21.0391 21 20.5304 21 20V9C21 8.73478 20.8946 8.48043 20.7071 8.29289C20.5196 8.10535 20.2652 8 20 8H17V7.223C17 4.614 15.097 2.278 12.5 2.025C11.8049 1.95591 11.103 2.0331 10.4395 2.2516C9.77599 2.4701 9.16557 2.82507 8.64752 3.29367C8.12946 3.76228 7.71524 4.33414 7.43149 4.97246C7.14774 5.61079 7.00076 6.30145 7 7V8H4C3.73478 8 3.48043 8.10535 3.29289 8.29289C3.10536 8.48043 3 8.73478 3 9V20C3 20.5304 3.21071 21.0391 3.58579 21.4142C3.96086 21.7893 4.46957 22 5 22ZM17 10V12H15V10H17ZM9 7C9 5.346 10.346 4 12 4C13.654 4 15 5.346 15 7V8H9V7ZM7 10H9V12H7V10Z" fill="#4A4D52"/>
</svg>
