<svg width="24" height="24" viewBox="0 0 24 24" fill="none" xmlns="http://www.w3.org/2000/svg">
<g id="likes">
<path id="Vector" d="M16.4945 3.58984C14.5597 3.58984 12.9065 4.96892 11.9982 5.91969C11.0899 4.96892 9.44032 3.58984 7.50647 3.58984C4.17324 3.58984 1.84616 5.91323 1.84616 9.23907C1.84616 12.9037 4.73631 15.2723 7.53231 17.5634C8.85232 18.6462 10.2185 19.7649 11.2662 21.0055C11.4425 21.2132 11.7009 21.3332 11.9723 21.3332H12.0259C12.2982 21.3332 12.5557 21.2123 12.7311 21.0055C13.7806 19.7649 15.1459 18.6452 16.4668 17.5634C19.2619 15.2732 22.1539 12.9046 22.1539 9.23907C22.1539 5.91323 19.8268 3.58984 16.4945 3.58984V3.58984Z" fill="#4A4D52"/>
</g>
</svg>
